<svg width="277" height="261" viewBox="0 0 277 261" fill="none" xmlns="http://www.w3.org/2000/svg">
<path opacity="0.1" d="M9.49565 251.468C-3.16522 238.758 -3.16522 218.181 9.49565 205.471L204.684 9.53217C217.345 -3.17739 237.843 -3.17739 250.504 9.53217C263.165 22.2417 263.165 42.8191 250.504 55.5287L55.1652 251.468C42.6551 264.177 22.1565 264.177 9.49565 251.468Z" fill="url(#paint0_linear_223_8)"/>
<path opacity="0.8" d="M81.6122 226.502C78.1293 223.02 78.1293 217.418 81.6122 214.087L261.97 33.6117C265.453 30.1294 271.056 30.1294 274.388 33.6117C277.871 37.0941 277.871 42.696 274.388 46.027L94.0298 226.502C90.6983 229.833 85.0952 229.833 81.6122 226.502Z" fill="url(#paint1_linear_223_8)"/>
<defs>
<linearGradient id="paint0_linear_223_8" x1="9.47774" y1="251.457" x2="251.368" y2="10.4936" gradientUnits="userSpaceOnUse">
<stop stop-color="#5E5749"/>
<stop offset="1" stop-color="#9F9B89"/>
</linearGradient>
<linearGradient id="paint1_linear_223_8" x1="79.0182" y1="130.03" x2="277.091" y2="130.03" gradientUnits="userSpaceOnUse">
<stop stop-color="#888071"/>
<stop offset="1" stop-color="#C9C6B9"/>
</linearGradient>
</defs>
</svg>
