<svg width="86" height="24" viewBox="0 0 86 24" fill="none" xmlns="http://www.w3.org/2000/svg">
<path d="M11 17.27L16.665 21L15.1617 13.97L20.1667 9.24L13.5758 8.63L11 2L8.42418 8.63L1.83334 9.24L6.83834 13.97L5.33501 21L11 17.27Z" fill="#34383D"/>
<path d="M43 17.27L48.665 21L47.1617 13.97L52.1667 9.24L45.5758 8.63L43 2L40.4242 8.63L33.8333 9.24L38.8383 13.97L37.335 21L43 17.27Z" fill="#34383D"/>
<path d="M75 15.831L80.665 19.2502L79.1617 12.806L84.1667 8.47016L77.5758 7.911L75 1.8335L72.4242 7.911L65.8333 8.47016L70.8383 12.806L69.335 19.2502L75 15.831Z" fill="#34383D"/>
</svg>
