<svg width="86" height="24" viewBox="0 0 86 24" fill="none" xmlns="http://www.w3.org/2000/svg">
<path d="M84 9.24L76.81 8.62L74 2L71.19 8.63L64 9.24L69.46 13.97L67.82 21L74 17.27L80.18 21L78.55 13.97L84 9.24ZM74 15.4V6.1L75.71 10.14L80.09 10.52L76.77 13.4L77.77 17.68L74 15.4Z" fill="#FFC600"/>
<path d="M43 17.27L49.18 21L47.54 13.97L53 9.24L45.81 8.63L43 2L40.19 8.63L33 9.24L38.46 13.97L36.82 21L43 17.27Z" fill="#FFC600"/>
<path d="M12 17.27L18.18 21L16.54 13.97L22 9.24L14.81 8.63L12 2L9.19 8.63L2 9.24L7.46 13.97L5.82 21L12 17.27Z" fill="#FFC600"/>
</svg>
