<?xml version="1.0" encoding="utf-8"?><svg viewBox="0 0 94 67" xmlns="http://www.w3.org/2000/svg" xmlns:xlink="http://www.w3.org/1999/xlink"><style>:root>svg{display:none}:root>svg:target{display:block}</style><svg fill="none" viewBox="0 0 86 24" id="black-stars" xmlns="http://www.w3.org/2000/svg"><path d="M11 17.27L16.665 21l-1.503-7.03 5.005-4.73-6.591-.61L11 2 8.424 8.63l-6.59.61 5.004 4.73L5.335 21 11 17.27zM43 17.27L48.665 21l-1.503-7.03 5.005-4.73-6.591-.61L43 2l-2.576 6.63-6.59.61 5.004 4.73L37.335 21 43 17.27zM75 15.831l5.665 3.42-1.503-6.445 5.005-4.336-6.591-.559L75 1.834 72.424 7.91l-6.59.56 5.004 4.335-1.503 6.444L75 15.831z" fill="#34383D"/></svg><svg fill="none" viewBox="0 0 18 18" id="calendar" xmlns="http://www.w3.org/2000/svg"><path d="M14.872 18H3.132c-.038-.012-.076-.03-.115-.035-1.676-.203-3.009-1.69-3.01-3.376C0 11.34-.009 8.087.01 4.836.018 3.475.67 2.463 1.85 1.795c.53-.302 1.113-.415 1.72-.416h.581v-.166c.005-.222-.018-.449.02-.666.058-.346.4-.575.754-.542a.703.703 0 01.631.685c.005.226.001.452.001.675h6.892c0-.196-.006-.377.002-.558.005-.121.01-.248.05-.36a.7.7 0 011.351.246c.005.225.001.451.001.688.262 0 .496-.006.73 0a3.483 3.483 0 013.325 2.68c.034.134.062.27.093.404v10.44c-.012.033-.029.064-.034.097-.215 1.31-.938 2.228-2.156 2.742-.296.125-.624.173-.938.256zm1.723-11.045H1.409v7.464c0 1.27.893 2.172 2.163 2.173 3.62.002 7.24.001 10.859-.001.169 0 .342-.011.506-.048.999-.22 1.657-1.044 1.657-2.07.002-2.449 0-4.898 0-7.347v-.171zm-2.743-4.138c0 .467.004.924-.001 1.38a.687.687 0 01-.557.655.7.7 0 01-.845-.703c-.003-.444 0-.887 0-1.34H5.556v.183c0 .393.003.785-.001 1.177a.701.701 0 01-1.403.007c-.005-.38-.002-.761-.002-1.142v-.219c-1.94-.229-2.94.993-2.722 2.702h15.148c.217-1.785-.86-2.932-2.725-2.7z" fill="#fff"/><path d="M13.156 9.001c.234 0 .468-.003.703 0a.702.702 0 01.008 1.402 65.46 65.46 0 01-1.423.002.706.706 0 01-.692-.698.708.708 0 01.702-.705c.234-.003.468 0 .702 0zM9.002 13.148c.24 0 .48-.005.72.002.372.01.672.323.676.695.003.367-.3.698-.667.705-.486.01-.972.009-1.458 0a.701.701 0 01.01-1.4c.24-.006.48-.002.72-.002zM4.86 9c.234 0 .468-.002.702.001.38.006.689.322.69.7a.704.704 0 01-.687.703c-.474.005-.948.005-1.422 0A.702.702 0 014.14 9c.24-.003.48 0 .72 0zM9.01 9.001c.235 0 .469-.003.703.001.377.007.688.33.684.706a.704.704 0 01-.675.696c-.48.007-.96.006-1.44 0a.7.7 0 01-.683-.705.7.7 0 01.691-.697c.241-.004.48 0 .72 0zM4.863 13.149c.234 0 .469-.004.702 0a.703.703 0 01.687.703.707.707 0 01-.691.7 55.26 55.26 0 01-1.422 0 .705.705 0 01-.686-.705.699.699 0 01.69-.698c.24-.004.48 0 .72 0zM13.155 13.15c.24 0 .48-.006.72 0a.7.7 0 01.675.694c.004.37-.298.7-.665.707-.491.009-.983.01-1.474 0-.366-.009-.669-.35-.66-.714a.703.703 0 01.667-.687c.246-.007.491 0 .737 0z" fill="#fff"/></svg><svg fill="none" viewBox="0 0 61 61" id="call" xmlns="http://www.w3.org/2000/svg"><path d="M46.228 61.001c-1.23-.25-2.335-.72-3.163-1.726-.723-.879-1.113-1.885-1.114-3.007-.015-6.373-.033-12.747.006-19.12.011-2.025 1.019-3.547 2.888-4.344 1.82-.775 3.549-.458 5.047.85 1.077.94 1.535 2.184 1.584 3.536l2.32 1.03c-.008.007.04-.017.04-.04-.07-3.094.016-6.2-.263-9.276-.299-3.28-1.574-6.29-3.392-9.047-.097-.148-.34-.274-.52-.28-1.675-.044-3.06-.726-4.256-1.86-3.025-2.869-6.643-4.586-10.7-5.37-5.217-1.006-10.172-.166-14.87 2.302-1.773.932-3.285 2.21-4.777 3.52a5.337 5.337 0 01-3.47 1.366c-.462.012-.686.197-.903.585-1.754 3.13-2.615 6.534-3.173 10.038-.426 2.68-.367 5.376-.347 8.082l2.368-1.053c.049-1.35.507-2.595 1.584-3.535 1.498-1.306 3.228-1.626 5.047-.849 1.893.81 2.844 2.353 2.896 4.404.04 1.568.009 3.136.009 4.704 0 4.447-.078 8.898.028 13.341.067 2.845-1.186 5.182-4.317 5.746h-.953c-.036-.018-.069-.047-.106-.052-2.33-.3-4.057-2.235-4.187-4.5-.009-.16-.237-.388-.409-.443-2.086-.66-3.469-2.015-4.102-4.11-.095-.315-.23-.425-.56-.467C1.642 51.06.01 49.197.009 46.351a3644.38 3644.38 0 01-.003-13.992c.005-2.51.276-4.989.888-7.427.86-3.418 2.29-6.578 4.25-9.506.165-.247.24-.621.209-.922-.21-2.05.373-3.81 1.856-5.24 5.236-5.043 11.53-7.886 18.681-8.92.939-.135 1.883-.23 2.825-.344h3.574c.152.034.304.079.458.101 1.725.247 3.475.383 5.173.758 6.013 1.33 11.33 4.026 15.791 8.324 1.48 1.427 2.171 3.153 1.922 5.204-.058.476.05.826.306 1.204 2.35 3.484 3.906 7.293 4.595 11.443.197 1.188.314 2.39.466 3.586V47.3c-.02.034-.05.067-.058.103-.375 2.259-2.186 3.891-4.423 4.031-.352.022-.449.188-.54.486-.636 2.064-1.995 3.425-4.06 4.052-.35.106-.46.259-.485.605a4.684 4.684 0 01-1.022 2.61c-.83 1.06-1.96 1.556-3.233 1.813l-.95.001zM31.09 2.372c-6.777.084-12.523 1.709-17.76 5.042-1.763 1.121-3.449 2.368-4.811 3.961-1.7 1.987-.698 5.025 1.832 5.688 1.393.365 2.537-.115 3.598-1.044 1.101-.965 2.22-1.944 3.459-2.71 4.998-3.098 10.446-4.273 16.29-3.54 3.045.38 5.91 1.317 8.61 2.766 1.92 1.03 3.589 2.392 5.21 3.834 1.073.953 2.375 1.072 3.68.508 2.401-1.038 2.844-4.102.864-5.978-6.038-5.724-13.326-8.31-20.972-8.527zM16.681 46.704v-1.31c0-2.72.012-5.44-.006-8.159-.009-1.5-1.192-2.575-2.621-2.435-1.268.125-2.134 1.153-2.137 2.568-.006 4.168-.001 8.337-.001 12.507 0 2.085-.008 4.168.002 6.253.007 1.145.656 2.048 1.655 2.362 1.583.498 3.093-.642 3.102-2.377.018-3.136.006-6.273.006-9.409zm32.406.002c0-3.137.01-6.273-.003-9.41-.006-1.526-1.123-2.599-2.563-2.5-1.29.089-2.195 1.135-2.196 2.57-.005 6.094-.002 12.188-.002 18.284 0 .258-.007.517.015.773a2.372 2.372 0 001.7 2.08c1.572.455 3.036-.674 3.045-2.388.015-3.137.004-6.273.004-9.41zM6.641 17.518c-2.137 3.35-3.511 6.969-3.981 10.877-.561 4.663-.203 9.358-.255 14.04 0 .013.018.027.007.013l2.328-.623c-.016.034.013 0 .015-.036.007-.297.007-.595.013-.892.061-3.648-.19-7.305.355-10.938.475-3.173 1.264-6.253 2.553-9.195.268-.61.59-1.193.869-1.752L6.64 17.518zm45.862 1.473c.069.133.133.274.212.408 2.448 4.11 3.564 8.568 3.524 13.34-.024 2.839-.004 5.677-.004 8.516v.566l2.363.631c.005-.083.018-.197.018-.31 0-3.374.015-6.75-.006-10.124-.022-3.859-.806-7.562-2.4-11.079-.535-1.18-1.196-2.306-1.802-3.464l-1.905 1.516zM9.506 39.806c-1.364.5-2.306 1.68-2.33 3.074a215.818 215.818 0 00-.002 7.613c.023 1.426 1.03 2.682 2.332 3.07V39.807zm42.006.028V53.58c1.358-.487 2.3-1.693 2.32-3.117.04-2.517.04-5.037-.001-7.554-.024-1.428-1.02-2.676-2.319-3.075zM4.74 44.348c-1.362.031-2.387 1.099-2.349 2.419A2.32 2.32 0 004.74 49.03v-4.682zm51.516 4.706c1.44-.085 2.435-1.166 2.353-2.502-.078-1.257-1.154-2.258-2.353-2.168v4.67z" fill="#000"/><path d="M28.087 48.42l2.89-10.11c.234-.818.464-1.639.707-2.455.213-.716.656-1.086 1.247-1.063.567.022.973.394 1.152 1.099.672 2.65 1.336 5.303 2.004 7.954.038.15.088.298.14.47.68 0 1.335-.01 1.988.003.785.017 1.312.483 1.332 1.155.023.685-.525 1.205-1.33 1.22-.933.019-1.866.016-2.798.002-.763-.012-1.15-.326-1.346-1.09-.409-1.592-.806-3.187-1.246-4.935-.099.278-.16.423-.203.572-1.064 3.714-2.128 7.428-3.19 11.142-.017.057-.027.117-.043.173-.257.879-.657 1.281-1.273 1.281-.595 0-.988-.372-1.27-1.218-.609-1.823-1.223-3.645-1.814-5.473-.108-.334-.25-.48-.618-.458-.554.033-1.112.024-1.667.005-.771-.028-1.3-.53-1.293-1.199.005-.672.535-1.162 1.31-1.175.932-.017 1.865-.01 2.797-.002.752.008 1.112.272 1.363 1.001.352 1.026.69 2.058 1.034 3.087l.127.014zM30.584 4.593c2.237.288 4.477.554 6.709.873.836.12 1.258.706 1.131 1.387-.134.716-.736 1.08-1.59.918-2.878-.542-5.774-.79-8.698-.516-2.434.227-4.83.64-7.139 1.481-.241.088-.482.184-.73.25-.619.163-1.21-.114-1.427-.655-.245-.609-.023-1.271.622-1.535.86-.352 1.743-.66 2.638-.906a32.203 32.203 0 018.462-1.134l.022-.163zM41.02 8.952a1.174 1.174 0 01-1.16-1.18c.007-.634.556-1.177 1.184-1.17a1.192 1.192 0 011.157 1.195 1.164 1.164 0 01-1.18 1.155z" fill="#000"/></svg><svg fill="none" viewBox="0 0 18 18" id="comment" xmlns="http://www.w3.org/2000/svg"><path d="M0 9.108C.228 5.178 1.95 2.31 5.499.79c3.313-1.421 6.468-.901 9.277 1.369 1.694 1.368 2.694 3.183 3.072 5.323.352 1.989.046 3.89-.884 5.683a.626.626 0 00-.05.525c.352 1.117.688 2.24 1.037 3.358.09.288.064.541-.161.752-.236.221-.5.238-.796.117-1.005-.41-2.015-.806-3.019-1.217-.138-.057-.239-.053-.367.024-1.545.927-3.224 1.341-5.022 1.267-4.031-.166-7.525-3.127-8.34-7.085C.118 10.282.072 9.642 0 9.108zm16.337 7.15c-.026-.097-.04-.153-.057-.21-.236-.79-.463-1.584-.712-2.37a.954.954 0 01.091-.818c.986-1.736 1.275-3.584.854-5.538-1.055-4.89-6.505-7.513-10.982-5.286-3.24 1.612-4.921 5.141-4.13 8.687a7.72 7.72 0 006.855 5.99c1.815.164 3.492-.272 5.011-1.285a.779.779 0 01.79-.083c.745.306 1.493.599 2.28.913z" fill="#fff"/><path d="M5.81 9.032a1.273 1.273 0 01-1.287 1.275A1.273 1.273 0 013.249 9.02a1.272 1.272 0 011.287-1.274c.713 0 1.276.57 1.274 1.287zM7.734 9.03a1.271 1.271 0 011.277-1.285 1.272 1.272 0 011.284 1.277 1.272 1.272 0 01-1.277 1.285A1.273 1.273 0 017.734 9.03zM13.512 7.745c.71.002 1.272.574 1.27 1.292a1.273 1.273 0 01-1.293 1.27 1.273 1.273 0 01-1.27-1.293 1.273 1.273 0 011.293-1.27z" fill="#fff"/></svg><svg fill="none" viewBox="0 0 59 59" id="money" xmlns="http://www.w3.org/2000/svg"><path d="M4.476 59c-.51-.333-.742-.8-.849-1.408-1.185-6.801-2.395-13.6-3.594-20.4-.145-.814.192-1.368 1.01-1.523 2.037-.382 4.073-.78 6.124-1.062 2.004-.276 3.683 1.027 4.103 3.042l.136.642 3.79-1.303c-.126-1.294-.316-2.543-.357-3.798-.091-2.745.626-5.313 1.878-7.743 2.316-4.502 4.62-9.011 6.953-13.505.232-.447.21-.775-.01-1.205a508.738 508.738 0 01-3.302-6.582c-.6-1.215-.423-2.428.449-3.292a2.673 2.673 0 013.085-.508c.534.26 1.04.576 1.558.87.976.554 1.31.537 2.17-.188C28.841.006 30.182-.325 31.674.362c.412.19.773.495 1.153.755.651.446 1.155.436 1.789-.043 1.803-1.366 3.205-1.42 5.022-.037.898.685 1.688.787 2.603.12.386-.281.825-.489 1.246-.718 1.191-.65 2.384-.527 3.297.331.9.845 1.116 2.066.532 3.276a505.848 505.848 0 01-3.322 6.765c-.192.383-.198.67 0 1.059a3348.86 3348.86 0 017.33 14.54c.23.46.415.95.577 1.44.21.644-.072 1.244-.651 1.475-.57.228-1.168-.035-1.474-.65-2.576-5.186-5.156-10.37-7.714-15.566-.215-.437-.45-.607-.948-.604-4.84.02-9.683.017-14.524.003-.451-.002-.707.112-.928.545-2.292 4.514-4.61 9.017-6.928 13.518-1.484 2.882-1.97 5.906-1.345 9.097.021.112.049.225.082.334.016.054.052.1.027.055 1.347-.28 2.644-.664 3.966-.8 2.895-.296 5.493.575 7.828 2.282 2.572 1.882 5.132 3.782 7.727 5.632 1.26.896 2.271 1.899 2.25 3.573 1.746.193 3.216-.235 4.448-1.482 2.685-2.72 5.395-5.416 8.1-8.117 1.465-1.462 3.255-1.808 4.936-.943 1.018.523 1.71 1.337 2.038 2.449.054.18.136.352.205.528v1.151c-.218.882-.583 1.685-1.182 2.386-1.396 1.637-2.759 3.3-4.156 4.936-1.298 1.516-2.522 3.117-3.959 4.49-3.273 3.125-7.262 4.552-11.777 4.548-5.167-.004-10.335-.001-15.502-.001-1.05 0-1.593-.4-1.585-1.163.005-.764.534-1.14 1.604-1.14 5.187 0 10.374.007 15.56-.003 4.309-.01 8-1.503 10.91-4.72 1.456-1.607 2.819-3.299 4.219-4.957 1.04-1.232 2.093-2.455 3.104-3.712.889-1.105.387-2.584-.95-2.89-.76-.175-1.336.169-1.85.685-2.712 2.72-5.434 5.43-8.142 8.155-1.002 1.008-2.161 1.758-3.561 1.986-.978.16-1.988.107-2.984.163-.197.012-.442.036-.576.155-1.375 1.21-2.855 1.251-4.432.462-1.938-.972-3.904-1.89-5.813-2.917-1.316-.709-2.643-1.205-4.162-1.01-.13.017-.268-.007-.401-.028-.572-.085-.986-.54-1-1.09-.015-.54.376-1.072.954-1.118 1.47-.115 2.926-.197 4.324.536 2.36 1.238 4.756 2.407 7.162 3.559.395.189.96.301 1.354.17 1.042-.348 1.084-1.61.114-2.322-2.817-2.067-5.635-4.135-8.464-6.184-2.179-1.578-4.611-2.185-7.248-1.61-1.34.294-2.636.81-3.944 1.248-1.595.534-3.184 1.09-4.82 1.652l.69 3.946c.539 3.08 1.103 6.155 1.605 9.24.273 1.677-.707 3.348-2.282 3.907-.733.26-1.53.35-2.301.5-1.408.276-2.817.539-4.224.807-.267.003-.536.003-.806.003zm29.397-48.788c2.439 0 4.876-.009 7.314.008.395.003.61-.105.788-.48.81-1.715 1.659-3.412 2.493-5.116.236-.482.5-.954.692-1.452.082-.212.013-.482.014-.726-.225.022-.482-.017-.671.078-.565.283-1.081.67-1.659.918-.553.238-1.149.437-1.744.506-1.101.126-1.98-.446-2.83-1.075-.942-.698-1.323-.678-2.247.03-1.467 1.126-3.064 1.148-4.566.064-1.246-.9-1.407-.889-2.647.082-1.295 1.013-2.68 1.148-4.137.38-.492-.259-.953-.58-1.454-.816-.225-.105-.517-.072-.778-.1.022.263-.03.562.078.784 1.052 2.152 2.14 4.287 3.198 6.436.174.353.378.494.786.492 2.456-.023 4.913-.013 7.37-.013zm-31.4 27.534L5.788 56.52c1.718-.316 3.382-.584 5.028-.94.784-.17 1.12-.855.973-1.705-.64-3.666-1.285-7.33-1.929-10.994-.265-1.511-.526-3.022-.8-4.533-.186-1.03-.717-1.574-1.589-1.452-1.647.231-3.283.552-4.996.849z" fill="#000"/><path d="M29.014 31.262c-.035-.786.327-1.278 1.001-1.362.637-.08 1.212.345 1.253 1.12.089 1.63 1.898 2.424 3.172 2.078 1.1-.3 1.881-1.175 1.834-2.145-.05-1.023-.953-1.871-2.09-2.049-.863-.135-1.77-.224-2.557-.567-1.818-.795-2.726-2.396-2.608-4.27.109-1.707 1.331-3.217 3.119-3.826.29-.098.48-.176.5-.567.037-.775.545-1.247 1.183-1.22.632.028 1.073.48 1.086 1.243.007.414.26.447.527.547 1.793.665 2.884 1.905 3.12 3.834.099.8-.321 1.387-1.024 1.466-.637.073-1.14-.39-1.248-1.148-.154-1.071-.76-1.772-1.758-2.037-1.063-.281-2.206.067-2.812.855-.986 1.28-.1 3.045 1.63 3.315.9.141 1.843.247 2.666.603 1.678.729 2.684 2.46 2.565 4.083-.134 1.84-1.322 3.364-3.11 3.964-.334.111-.554.214-.57.642-.023.588-.493.993-1.052 1.03-.537.035-1.067-.331-1.142-.917-.062-.48-.287-.65-.713-.795-1.704-.586-2.897-2.177-2.973-3.877zM52.749 32.63c-.015.608-.563 1.14-1.164 1.128a1.153 1.153 0 01-1.117-1.162c.011-.619.541-1.137 1.153-1.126.607.012 1.142.563 1.128 1.16zM17.636 54.396c.605.01 1.138.556 1.126 1.158-.01.601-.561 1.138-1.16 1.127-.604-.012-1.137-.559-1.125-1.16.011-.607.556-1.135 1.16-1.125zM8.248 51.315c.605.006 1.132.543 1.129 1.152a1.144 1.144 0 01-1.145 1.125A1.13 1.13 0 017.11 52.45c.005-.614.53-1.138 1.138-1.134z" fill="#000"/></svg><svg fill="none" viewBox="0 0 86 24" id="rating" xmlns="http://www.w3.org/2000/svg"><path d="M84 9.24l-7.19-.62L74 2l-2.81 6.63-7.19.61 5.46 4.73L67.82 21 74 17.27 80.18 21l-1.63-7.03L84 9.24zM74 15.4V6.1l1.71 4.04 4.38.38-3.32 2.88 1 4.28L74 15.4zM43 17.27L49.18 21l-1.64-7.03L53 9.24l-7.19-.61L43 2l-2.81 6.63-7.19.61 5.46 4.73L36.82 21 43 17.27zM12 17.27L18.18 21l-1.64-7.03L22 9.24l-7.19-.61L12 2 9.19 8.63 2 9.24l5.46 4.73L5.82 21 12 17.27z" fill="#FFC600"/></svg><svg fill="none" viewBox="0 0 40 40" id="search" xmlns="http://www.w3.org/2000/svg"><path d="M18.333 31.667c7.364 0 13.334-5.97 13.334-13.334C31.667 10.97 25.697 5 18.333 5 10.97 5 5 10.97 5 18.333c0 7.364 5.97 13.334 13.333 13.334zM35 35l-7.25-7.25" stroke="#CDA861" stroke-width="3" stroke-linecap="round" stroke-linejoin="round"/></svg><svg fill="none" viewBox="0 0 40 40" id="shopping-cart" xmlns="http://www.w3.org/2000/svg"><path d="M15 36.667a1.667 1.667 0 100-3.334 1.667 1.667 0 000 3.334zM33.333 36.667a1.667 1.667 0 100-3.334 1.667 1.667 0 000 3.334zM1.667 1.667h6.666L12.8 23.983a3.333 3.333 0 003.333 2.684h16.2a3.333 3.333 0 003.334-2.684L38.333 10H10" stroke="#CDA861" stroke-width="3" stroke-linecap="round" stroke-linejoin="round"/></svg><svg fill="none" viewBox="0 0 25 25" id="slide-arrow" xmlns="http://www.w3.org/2000/svg"><path d="M14 18l1.41-1.41L10.83 12l4.58-4.59L14 6l-6 6 6 6z" fill="#34383D"/></svg><svg fill="none" viewBox="0 0 21 20" id="star" xmlns="http://www.w3.org/2000/svg"><path d="M20.083 7.855l-6.89-.594L10.5.917 7.807 7.27l-6.89.584 5.232 4.533-1.572 6.737L10.5 15.55l5.922 3.575-1.562-6.737 5.223-4.533zM10.5 13.758l-3.603 2.176.958-4.102-3.182-2.76 4.198-.364L10.5 4.846l1.639 3.872 4.197.364-3.181 2.76.958 4.101-3.613-2.185z" fill="#34383D"/></svg><svg fill="none" viewBox="0 0 94 67" id="truck" xmlns="http://www.w3.org/2000/svg"><g clip-path="url(#kclip0_49_169)" fill="#000"><path d="M0 7.132c.537-.765 1.27-.977 2.198-.975 19.426.022 38.85.015 58.278.017 1.739 0 2.17.43 2.173 2.153.002 2.861 0 5.72 0 8.68.417.023.767.06 1.118.06 4.618.004 9.239.024 13.857-.013 1.097-.01 1.81.37 2.406 1.303 4.434 6.934 8.923 13.836 13.354 20.773.354.552.577 1.292.584 1.944.047 5.334.027 10.668.025 15.999 0 1.671-.498 2.157-2.205 2.157-2.413.003-4.827 0-7.272 0-.17.562-.304 1.09-.488 1.596-1.393 3.838-5.111 6.335-9.16 6.162-4.194-.178-7.692-2.944-8.749-6.963-.142-.543-.292-.814-.937-.812-11.166.022-22.33.015-33.497.017-.12 0-.24.015-.4.027-1.398 4.882-4.466 7.86-9.737 7.682-4.875-.166-7.69-3.09-8.964-7.708-3.443 0-6.899-.025-10.352.014-.974.012-1.73-.237-2.234-1.09C0 41.15 0 24.142 0 7.132zM3.193 9.33v40.573h7.728V53H3.203v3.113H12.576c1.852-5.212 4.749-7.697 9.06-7.814 1.948-.051 3.756.44 5.391 1.498 2.296 1.488 3.63 3.643 4.2 6.25h28.216v-3.081H32.946v-3.108h26.51v-34.34H6.327v-3.135H59.45V9.326c-18.78.003-37.493.003-56.258.003zm82.993 40.46h4.682v-8.018c0-1.246-.044-1.29-1.29-1.29-7.22 0-14.44.002-21.659-.003-1.643 0-2.129-.486-2.131-2.128-.005-4.298-.005-8.595 0-12.89.002-1.633.495-2.124 2.139-2.126 3.458-.005 6.913-.003 10.372-.003h1.172c-.594-.933-1.111-1.674-1.55-2.455-.292-.52-.65-.694-1.249-.69-4.343.027-8.686.013-13.032.015-.27 0-.54.03-.84.047v35.816h3.052c1.915-5.224 4.758-7.75 9.067-7.736 5.212.018 8.275 2.881 9.626 7.736h6.26v-3.12h-4.616c-.003-1.053-.003-1.989-.003-3.154zm2.234-12.465c-.07-.193-.088-.283-.135-.354-2.16-3.355-4.309-6.717-6.509-10.045-.179-.271-.696-.442-1.06-.447-3.604-.032-7.212-.02-10.817-.017-.295 0-.592.024-.893.037v10.826H88.42zM75.18 63.883c3.44.012 6.261-2.764 6.29-6.187.03-3.394-2.793-6.25-6.212-6.286-3.465-.035-6.327 2.795-6.322 6.252.007 3.44 2.788 6.21 6.244 6.22zm-53.295 0a6.249 6.249 0 006.316-6.155c.061-3.423-2.81-6.319-6.267-6.319-3.42 0-6.251 2.808-6.273 6.224-.022 3.41 2.781 6.225 6.224 6.25zM0 0h3.06v3.11H0V0zM28.21.005c0 .884.034 1.705-.025 2.516-.015.186-.324.404-.544.509-.175.083-.42.02-.636.02H6.32V.004h21.89z"/><path d="M76.714 56.188v2.989h-3.038v-2.989h3.038zM23.456 56.184v2.998H20.45v-2.998h3.006z"/></g><defs><clipPath id="kclip0_49_169"><path fill="#fff" d="M0 0h94v67H0z"/></clipPath></defs></svg></svg>